<?xml version="1.0" standalone="no"?>
<!DOCTYPE svg PUBLIC "-//W3C//DTD SVG 20010904//EN"
 "http://www.w3.org/TR/2001/REC-SVG-20010904/DTD/svg10.dtd">
<svg version="1.0" xmlns="http://www.w3.org/2000/svg"
 width="195.000000pt" height="183.000000pt" viewBox="0 0 195.000000 183.000000"
 preserveAspectRatio="xMidYMid meet">
<metadata>
Created by potrace 1.16, written by Peter Selinger 2001-2019
</metadata>
<g transform="translate(0.000000,183.000000) scale(0.100000,-0.100000)"
fill="#000000" stroke="none">
<path d="M831 1710 c-298 -63 -549 -297 -627 -585 -18 -67 -30 -274 -20 -331
l7 -37 137 6 c140 6 224 22 300 58 71 35 73 51 7 119 -64 68 -99 138 -121 241
-18 85 -15 128 8 143 25 15 172 -9 298 -50 75 -24 126 -34 169 -34 178 0 333
-75 395 -191 34 -63 72 -108 104 -120 34 -13 45 -54 33 -120 -21 -124 -105
-224 -244 -292 -65 -33 -88 -53 -186 -160 -111 -122 -201 -234 -201 -251 0 -5
53 -6 123 -3 232 12 384 75 540 226 118 114 191 240 229 400 17 71 19 108 15
211 -5 145 -22 213 -78 327 -99 203 -274 353 -494 423 -55 18 -99 23 -210 26
-77 2 -160 -1 -184 -6z"/>
</g>
</svg>
